<svg xmlns="http://www.w3.org/2000/svg" xmlns:xlink="http://www.w3.org/1999/xlink" width="80" zoomAndPan="magnify" viewBox="0 0 60 60" height="80" preserveAspectRatio="xMidYMid meet" version="1.0"><defs><g/><clipPath id="8e65cc02cb"><path d="M 2.175781 3.148438 L 57.824219 3.148438 L 57.824219 57 L 2.175781 57 Z M 2.175781 3.148438 " clip-rule="nonzero"/></clipPath><clipPath id="7e5c78e5ec"><path d="M 30 3.148438 C 14.632812 3.148438 2.175781 15.203125 2.175781 30.074219 C 2.175781 44.945312 14.632812 57 30 57 C 45.367188 57 57.824219 44.945312 57.824219 30.074219 C 57.824219 15.203125 45.367188 3.148438 30 3.148438 Z M 30 3.148438 " clip-rule="nonzero"/></clipPath><linearGradient x1="0.00506632" gradientTransform="matrix(0.210352, 0, 0, 0.210352, 2.173934, 3.150003)" y1="128" x2="264.557007" gradientUnits="userSpaceOnUse" y2="128" id="9179d174a1"><stop stop-opacity="1" stop-color="rgb(100%, 19.200134%, 19.200134%)" offset="0"/><stop stop-opacity="1" stop-color="rgb(100%, 19.346619%, 19.242859%)" offset="0.0078125"/><stop stop-opacity="1" stop-color="rgb(100%, 19.641113%, 19.328308%)" offset="0.015625"/><stop stop-opacity="1" stop-color="rgb(100%, 19.935608%, 19.413757%)" offset="0.0234375"/><stop stop-opacity="1" stop-color="rgb(100%, 20.230103%, 19.500732%)" offset="0.03125"/><stop stop-opacity="1" stop-color="rgb(100%, 20.524597%, 19.586182%)" offset="0.0390625"/><stop stop-opacity="1" stop-color="rgb(100%, 20.819092%, 19.671631%)" offset="0.046875"/><stop stop-opacity="1" stop-color="rgb(100%, 21.113586%, 19.75708%)" offset="0.0546875"/><stop stop-opacity="1" stop-color="rgb(100%, 21.408081%, 19.844055%)" offset="0.0625"/><stop stop-opacity="1" stop-color="rgb(100%, 21.702576%, 19.929504%)" offset="0.0703125"/><stop stop-opacity="1" stop-color="rgb(100%, 21.99707%, 20.014954%)" offset="0.078125"/><stop stop-opacity="1" stop-color="rgb(100%, 22.291565%, 20.101929%)" offset="0.0859375"/><stop stop-opacity="1" stop-color="rgb(100%, 22.58606%, 20.187378%)" offset="0.09375"/><stop stop-opacity="1" stop-color="rgb(100%, 22.880554%, 20.272827%)" offset="0.101562"/><stop stop-opacity="1" stop-color="rgb(100%, 23.175049%, 20.359802%)" offset="0.109375"/><stop stop-opacity="1" stop-color="rgb(100%, 23.469543%, 20.445251%)" offset="0.117188"/><stop stop-opacity="1" stop-color="rgb(100%, 23.764038%, 20.530701%)" offset="0.125"/><stop stop-opacity="1" stop-color="rgb(100%, 24.058533%, 20.617676%)" offset="0.132812"/><stop stop-opacity="1" stop-color="rgb(100%, 24.353027%, 20.703125%)" offset="0.140625"/><stop stop-opacity="1" stop-color="rgb(100%, 24.647522%, 20.788574%)" offset="0.148438"/><stop stop-opacity="1" stop-color="rgb(100%, 24.942017%, 20.875549%)" offset="0.15625"/><stop stop-opacity="1" stop-color="rgb(100%, 25.236511%, 20.960999%)" offset="0.164063"/><stop stop-opacity="1" stop-color="rgb(100%, 25.531006%, 21.046448%)" offset="0.171875"/><stop stop-opacity="1" stop-color="rgb(100%, 25.8255%, 21.133423%)" offset="0.179688"/><stop stop-opacity="1" stop-color="rgb(100%, 26.119995%, 21.218872%)" offset="0.1875"/><stop stop-opacity="1" stop-color="rgb(100%, 26.41449%, 21.304321%)" offset="0.195312"/><stop stop-opacity="1" stop-color="rgb(100%, 26.708984%, 21.391296%)" offset="0.203125"/><stop stop-opacity="1" stop-color="rgb(100%, 27.003479%, 21.476746%)" offset="0.210938"/><stop stop-opacity="1" stop-color="rgb(100%, 27.297974%, 21.562195%)" offset="0.21875"/><stop stop-opacity="1" stop-color="rgb(100%, 27.592468%, 21.647644%)" offset="0.226562"/><stop stop-opacity="1" stop-color="rgb(100%, 27.886963%, 21.734619%)" offset="0.234375"/><stop stop-opacity="1" stop-color="rgb(100%, 28.182983%, 21.820068%)" offset="0.242188"/><stop stop-opacity="1" stop-color="rgb(100%, 28.477478%, 21.905518%)" offset="0.25"/><stop stop-opacity="1" stop-color="rgb(100%, 28.771973%, 21.992493%)" offset="0.257812"/><stop stop-opacity="1" stop-color="rgb(100%, 29.066467%, 22.077942%)" offset="0.265625"/><stop stop-opacity="1" stop-color="rgb(100%, 29.360962%, 22.163391%)" offset="0.273438"/><stop stop-opacity="1" stop-color="rgb(100%, 29.655457%, 22.250366%)" offset="0.28125"/><stop stop-opacity="1" stop-color="rgb(100%, 29.949951%, 22.335815%)" offset="0.289063"/><stop stop-opacity="1" stop-color="rgb(100%, 30.244446%, 22.421265%)" offset="0.296875"/><stop stop-opacity="1" stop-color="rgb(100%, 30.53894%, 22.50824%)" offset="0.304688"/><stop stop-opacity="1" stop-color="rgb(100%, 30.833435%, 22.593689%)" offset="0.3125"/><stop stop-opacity="1" stop-color="rgb(100%, 31.12793%, 22.679138%)" offset="0.320313"/><stop stop-opacity="1" stop-color="rgb(100%, 31.422424%, 22.766113%)" offset="0.328125"/><stop stop-opacity="1" stop-color="rgb(100%, 31.716919%, 22.851562%)" offset="0.335938"/><stop stop-opacity="1" stop-color="rgb(100%, 32.011414%, 22.937012%)" offset="0.34375"/><stop stop-opacity="1" stop-color="rgb(100%, 32.305908%, 23.023987%)" offset="0.351563"/><stop stop-opacity="1" stop-color="rgb(100%, 32.600403%, 23.109436%)" offset="0.359375"/><stop stop-opacity="1" stop-color="rgb(100%, 32.894897%, 23.194885%)" offset="0.367188"/><stop stop-opacity="1" stop-color="rgb(100%, 33.189392%, 23.28186%)" offset="0.375"/><stop stop-opacity="1" stop-color="rgb(100%, 33.483887%, 23.36731%)" offset="0.382813"/><stop stop-opacity="1" stop-color="rgb(100%, 33.778381%, 23.452759%)" offset="0.390625"/><stop stop-opacity="1" stop-color="rgb(100%, 34.072876%, 23.538208%)" offset="0.398438"/><stop stop-opacity="1" stop-color="rgb(100%, 34.367371%, 23.625183%)" offset="0.40625"/><stop stop-opacity="1" stop-color="rgb(100%, 34.661865%, 23.710632%)" offset="0.414063"/><stop stop-opacity="1" stop-color="rgb(100%, 34.95636%, 23.796082%)" offset="0.421875"/><stop stop-opacity="1" stop-color="rgb(100%, 35.250854%, 23.883057%)" offset="0.429688"/><stop stop-opacity="1" stop-color="rgb(100%, 35.545349%, 23.968506%)" offset="0.4375"/><stop stop-opacity="1" stop-color="rgb(100%, 35.839844%, 24.053955%)" offset="0.445313"/><stop stop-opacity="1" stop-color="rgb(100%, 36.134338%, 24.14093%)" offset="0.453125"/><stop stop-opacity="1" stop-color="rgb(100%, 36.428833%, 24.226379%)" offset="0.460938"/><stop stop-opacity="1" stop-color="rgb(100%, 36.723328%, 24.311829%)" offset="0.46875"/><stop stop-opacity="1" stop-color="rgb(100%, 37.017822%, 24.398804%)" offset="0.476563"/><stop stop-opacity="1" stop-color="rgb(100%, 37.312317%, 24.484253%)" offset="0.484375"/><stop stop-opacity="1" stop-color="rgb(100%, 37.606812%, 24.569702%)" offset="0.492188"/><stop stop-opacity="1" stop-color="rgb(100%, 37.901306%, 24.656677%)" offset="0.5"/><stop stop-opacity="1" stop-color="rgb(100%, 38.195801%, 24.742126%)" offset="0.507812"/><stop stop-opacity="1" stop-color="rgb(100%, 38.490295%, 24.827576%)" offset="0.515625"/><stop stop-opacity="1" stop-color="rgb(100%, 38.78479%, 24.914551%)" offset="0.523438"/><stop stop-opacity="1" stop-color="rgb(100%, 39.079285%, 25%)" offset="0.53125"/><stop stop-opacity="1" stop-color="rgb(100%, 39.373779%, 25.085449%)" offset="0.539062"/><stop stop-opacity="1" stop-color="rgb(100%, 39.668274%, 25.172424%)" offset="0.546875"/><stop stop-opacity="1" stop-color="rgb(100%, 39.962769%, 25.257874%)" offset="0.554688"/><stop stop-opacity="1" stop-color="rgb(100%, 40.257263%, 25.343323%)" offset="0.5625"/><stop stop-opacity="1" stop-color="rgb(100%, 40.551758%, 25.430298%)" offset="0.570312"/><stop stop-opacity="1" stop-color="rgb(100%, 40.846252%, 25.515747%)" offset="0.578125"/><stop stop-opacity="1" stop-color="rgb(100%, 41.140747%, 25.601196%)" offset="0.585938"/><stop stop-opacity="1" stop-color="rgb(100%, 41.435242%, 25.686646%)" offset="0.59375"/><stop stop-opacity="1" stop-color="rgb(100%, 41.729736%, 25.773621%)" offset="0.601562"/><stop stop-opacity="1" stop-color="rgb(100%, 42.024231%, 25.85907%)" offset="0.609375"/><stop stop-opacity="1" stop-color="rgb(100%, 42.318726%, 25.944519%)" offset="0.617188"/><stop stop-opacity="1" stop-color="rgb(100%, 42.614746%, 26.031494%)" offset="0.625"/><stop stop-opacity="1" stop-color="rgb(100%, 42.909241%, 26.116943%)" offset="0.632812"/><stop stop-opacity="1" stop-color="rgb(100%, 43.203735%, 26.202393%)" offset="0.640625"/><stop stop-opacity="1" stop-color="rgb(100%, 43.49823%, 26.289368%)" offset="0.648438"/><stop stop-opacity="1" stop-color="rgb(100%, 43.792725%, 26.374817%)" offset="0.65625"/><stop stop-opacity="1" stop-color="rgb(100%, 44.087219%, 26.460266%)" offset="0.664062"/><stop stop-opacity="1" stop-color="rgb(100%, 44.381714%, 26.547241%)" offset="0.671875"/><stop stop-opacity="1" stop-color="rgb(100%, 44.676208%, 26.63269%)" offset="0.679687"/><stop stop-opacity="1" stop-color="rgb(100%, 44.970703%, 26.71814%)" offset="0.6875"/><stop stop-opacity="1" stop-color="rgb(100%, 45.265198%, 26.805115%)" offset="0.695312"/><stop stop-opacity="1" stop-color="rgb(100%, 45.559692%, 26.890564%)" offset="0.703125"/><stop stop-opacity="1" stop-color="rgb(100%, 45.854187%, 26.976013%)" offset="0.710938"/><stop stop-opacity="1" stop-color="rgb(100%, 46.148682%, 27.062988%)" offset="0.71875"/><stop stop-opacity="1" stop-color="rgb(100%, 46.443176%, 27.148438%)" offset="0.726562"/><stop stop-opacity="1" stop-color="rgb(100%, 46.737671%, 27.233887%)" offset="0.734375"/><stop stop-opacity="1" stop-color="rgb(100%, 47.032166%, 27.320862%)" offset="0.742187"/><stop stop-opacity="1" stop-color="rgb(100%, 47.32666%, 27.406311%)" offset="0.75"/><stop stop-opacity="1" stop-color="rgb(100%, 47.621155%, 27.49176%)" offset="0.757812"/><stop stop-opacity="1" stop-color="rgb(100%, 47.915649%, 27.577209%)" offset="0.765625"/><stop stop-opacity="1" stop-color="rgb(100%, 48.210144%, 27.664185%)" offset="0.773438"/><stop stop-opacity="1" stop-color="rgb(100%, 48.504639%, 27.749634%)" offset="0.78125"/><stop stop-opacity="1" stop-color="rgb(100%, 48.799133%, 27.835083%)" offset="0.789062"/><stop stop-opacity="1" stop-color="rgb(100%, 49.093628%, 27.922058%)" offset="0.796875"/><stop stop-opacity="1" stop-color="rgb(100%, 49.388123%, 28.007507%)" offset="0.804687"/><stop stop-opacity="1" stop-color="rgb(100%, 49.682617%, 28.092957%)" offset="0.8125"/><stop stop-opacity="1" stop-color="rgb(100%, 49.977112%, 28.179932%)" offset="0.820312"/><stop stop-opacity="1" stop-color="rgb(100%, 50.271606%, 28.265381%)" offset="0.828125"/><stop stop-opacity="1" stop-color="rgb(100%, 50.566101%, 28.35083%)" offset="0.835938"/><stop stop-opacity="1" stop-color="rgb(100%, 50.860596%, 28.437805%)" offset="0.84375"/><stop stop-opacity="1" stop-color="rgb(100%, 51.15509%, 28.523254%)" offset="0.851562"/><stop stop-opacity="1" stop-color="rgb(100%, 51.449585%, 28.608704%)" offset="0.859375"/><stop stop-opacity="1" stop-color="rgb(100%, 51.74408%, 28.695679%)" offset="0.867187"/><stop stop-opacity="1" stop-color="rgb(100%, 52.038574%, 28.781128%)" offset="0.875"/><stop stop-opacity="1" stop-color="rgb(100%, 52.333069%, 28.866577%)" offset="0.882812"/><stop stop-opacity="1" stop-color="rgb(100%, 52.627563%, 28.953552%)" offset="0.890625"/><stop stop-opacity="1" stop-color="rgb(100%, 52.922058%, 29.039001%)" offset="0.898438"/><stop stop-opacity="1" stop-color="rgb(100%, 53.216553%, 29.124451%)" offset="0.90625"/><stop stop-opacity="1" stop-color="rgb(100%, 53.511047%, 29.211426%)" offset="0.914062"/><stop stop-opacity="1" stop-color="rgb(100%, 53.805542%, 29.296875%)" offset="0.921875"/><stop stop-opacity="1" stop-color="rgb(100%, 54.100037%, 29.382324%)" offset="0.929687"/><stop stop-opacity="1" stop-color="rgb(100%, 54.394531%, 29.469299%)" offset="0.9375"/><stop stop-opacity="1" stop-color="rgb(100%, 54.689026%, 29.554749%)" offset="0.945312"/><stop stop-opacity="1" stop-color="rgb(100%, 54.983521%, 29.640198%)" offset="0.953125"/><stop stop-opacity="1" stop-color="rgb(100%, 55.278015%, 29.725647%)" offset="0.960938"/><stop stop-opacity="1" stop-color="rgb(100%, 55.57251%, 29.812622%)" offset="0.96875"/><stop stop-opacity="1" stop-color="rgb(100%, 55.867004%, 29.898071%)" offset="0.976562"/><stop stop-opacity="1" stop-color="rgb(100%, 56.161499%, 29.983521%)" offset="0.984375"/><stop stop-opacity="1" stop-color="rgb(100%, 56.455994%, 30.070496%)" offset="0.992188"/><stop stop-opacity="1" stop-color="rgb(100%, 56.750488%, 30.155945%)" offset="1"/></linearGradient><clipPath id="b97655ff4f"><path d="M 26 10.6875 L 34 10.6875 L 34 18 L 26 18 Z M 26 10.6875 " clip-rule="nonzero"/></clipPath><clipPath id="c819f0993e"><path d="M 23 19 L 37 19 L 37 46.6875 L 23 46.6875 Z M 23 19 " clip-rule="nonzero"/></clipPath><clipPath id="d0f398d59d"><path d="M 38 23 L 48 23 L 48 46.6875 L 38 46.6875 Z M 38 23 " clip-rule="nonzero"/></clipPath><clipPath id="c873553bea"><path d="M 12.1875 23 L 22 23 L 22 46.6875 L 12.1875 46.6875 Z M 12.1875 23 " clip-rule="nonzero"/></clipPath></defs><g clip-path="url(#8e65cc02cb)"><g clip-path="url(#7e5c78e5ec)"><path fill="url(#9179d174a1)" d="M 2.175781 3.148438 L 2.175781 57 L 57.824219 57 L 57.824219 3.148438 Z M 2.175781 3.148438 " fill-rule="nonzero"/></g></g><g fill="#000000" fill-opacity="1"><g transform="translate(29.854686, 29.400001)"><g><path d="M 0.140625 -0.640625 C 0.117188 -0.640625 0.101562 -0.644531 0.09375 -0.65625 C 0.0820312 -0.664062 0.078125 -0.679688 0.078125 -0.703125 C 0.078125 -0.710938 0.0820312 -0.722656 0.09375 -0.734375 C 0.101562 -0.742188 0.117188 -0.75 0.140625 -0.75 C 0.148438 -0.75 0.160156 -0.742188 0.171875 -0.734375 C 0.179688 -0.722656 0.1875 -0.710938 0.1875 -0.703125 C 0.1875 -0.679688 0.179688 -0.664062 0.171875 -0.65625 C 0.160156 -0.644531 0.148438 -0.640625 0.140625 -0.640625 Z M 0.09375 0 L 0.09375 -0.53125 L 0.171875 -0.53125 L 0.171875 0 Z M 0.09375 0 "/></g></g></g><g clip-path="url(#b97655ff4f)"><path fill="#363430" d="M 28.503906 14.667969 C 28.554688 14.703125 28.574219 14.765625 28.554688 14.824219 L 27.84375 17.011719 C 27.828125 17.070312 27.847656 17.132812 27.894531 17.167969 C 27.945312 17.203125 28.011719 17.203125 28.058594 17.167969 L 29.917969 15.816406 C 29.96875 15.78125 30.03125 15.78125 30.082031 15.816406 L 31.941406 17.167969 C 31.992188 17.203125 32.054688 17.203125 32.105469 17.167969 C 32.152344 17.132812 32.171875 17.070312 32.152344 17.011719 L 31.445312 14.824219 C 31.425781 14.765625 31.445312 14.703125 31.496094 14.667969 L 33.355469 13.320312 C 33.40625 13.285156 33.425781 13.222656 33.40625 13.164062 C 33.386719 13.105469 33.332031 13.066406 33.273438 13.066406 L 30.972656 13.066406 C 30.914062 13.066406 30.863281 13.027344 30.839844 12.972656 L 30.132812 10.78125 C 30.113281 10.726562 30.058594 10.6875 30 10.6875 C 29.941406 10.6875 29.886719 10.726562 29.867188 10.78125 L 29.160156 12.972656 C 29.140625 13.027344 29.085938 13.066406 29.027344 13.066406 L 26.726562 13.066406 C 26.667969 13.066406 26.613281 13.105469 26.59375 13.164062 C 26.574219 13.222656 26.59375 13.285156 26.644531 13.320312 L 28.503906 14.667969 " fill-opacity="1" fill-rule="nonzero"/></g><path fill="#363430" d="M 24.109375 17.691406 L 23.628906 16.210938 C 23.609375 16.144531 23.628906 16.078125 23.679688 16.042969 L 24.941406 15.128906 C 24.992188 15.089844 25.015625 15.023438 24.992188 14.964844 C 24.972656 14.902344 24.917969 14.859375 24.855469 14.859375 L 23.296875 14.859375 C 23.230469 14.859375 23.175781 14.816406 23.15625 14.757812 L 22.675781 13.277344 C 22.65625 13.21875 22.597656 13.175781 22.53125 13.175781 C 22.46875 13.175781 22.414062 13.21875 22.394531 13.277344 L 21.914062 14.757812 C 21.890625 14.816406 21.832031 14.859375 21.769531 14.859375 L 20.214844 14.859375 C 20.148438 14.859375 20.089844 14.902344 20.070312 14.964844 C 20.054688 15.023438 20.074219 15.089844 20.125 15.128906 L 21.382812 16.042969 C 21.4375 16.078125 21.460938 16.144531 21.4375 16.210938 L 20.957031 17.691406 C 20.9375 17.75 20.960938 17.816406 21.011719 17.855469 C 21.066406 17.890625 21.136719 17.890625 21.183594 17.855469 L 22.449219 16.941406 C 22.496094 16.902344 22.566406 16.902344 22.621094 16.941406 L 23.878906 17.855469 C 23.929688 17.890625 24.003906 17.890625 24.054688 17.855469 C 24.105469 17.816406 24.125 17.75 24.109375 17.691406 " fill-opacity="1" fill-rule="nonzero"/><path fill="#363430" d="M 39.039062 17.691406 L 38.5625 16.210938 C 38.539062 16.144531 38.5625 16.078125 38.617188 16.042969 L 39.875 15.128906 C 39.925781 15.089844 39.945312 15.023438 39.929688 14.964844 C 39.90625 14.902344 39.847656 14.859375 39.785156 14.859375 L 38.230469 14.859375 C 38.167969 14.859375 38.109375 14.816406 38.085938 14.757812 L 37.605469 13.277344 C 37.585938 13.21875 37.53125 13.175781 37.464844 13.175781 C 37.402344 13.175781 37.34375 13.21875 37.324219 13.277344 L 36.84375 14.757812 C 36.820312 14.816406 36.765625 14.859375 36.703125 14.859375 L 35.144531 14.859375 C 35.082031 14.859375 35.027344 14.902344 35.003906 14.964844 C 34.984375 15.023438 35.007812 15.089844 35.058594 15.128906 L 36.320312 16.042969 C 36.371094 16.078125 36.390625 16.144531 36.371094 16.210938 L 35.890625 17.691406 C 35.875 17.75 35.890625 17.816406 35.945312 17.855469 C 35.996094 17.890625 36.066406 17.890625 36.121094 17.855469 L 37.378906 16.941406 C 37.429688 16.902344 37.503906 16.902344 37.550781 16.941406 L 38.816406 17.855469 L 38.8125 17.855469 C 38.863281 17.890625 38.933594 17.890625 38.984375 17.855469 C 39.039062 17.816406 39.0625 17.75 39.039062 17.691406 " fill-opacity="1" fill-rule="nonzero"/><path fill="#363430" d="M 42.523438 19.292969 C 42.570312 19.324219 42.589844 19.386719 42.574219 19.445312 L 42.132812 20.800781 C 42.113281 20.855469 42.132812 20.917969 42.179688 20.953125 C 42.226562 20.988281 42.292969 20.988281 42.339844 20.953125 L 43.496094 20.117188 C 43.542969 20.078125 43.605469 20.078125 43.652344 20.117188 L 44.808594 20.953125 C 44.855469 20.988281 44.921875 20.988281 44.96875 20.953125 C 45.015625 20.917969 45.039062 20.855469 45.015625 20.800781 L 44.578125 19.445312 C 44.558594 19.386719 44.582031 19.324219 44.628906 19.292969 L 45.78125 18.453125 C 45.828125 18.417969 45.847656 18.355469 45.828125 18.300781 C 45.8125 18.246094 45.761719 18.207031 45.703125 18.207031 L 44.277344 18.207031 C 44.214844 18.207031 44.164062 18.171875 44.144531 18.113281 L 43.703125 16.757812 C 43.6875 16.699219 43.632812 16.660156 43.578125 16.660156 C 43.515625 16.660156 43.464844 16.699219 43.445312 16.757812 L 43.003906 18.113281 C 42.984375 18.171875 42.9375 18.207031 42.875 18.207031 L 41.449219 18.207031 C 41.390625 18.207031 41.339844 18.246094 41.320312 18.300781 C 41.304688 18.355469 41.320312 18.417969 41.371094 18.453125 L 42.523438 19.292969 " fill-opacity="1" fill-rule="nonzero"/><path fill="#363430" d="M 15.371094 19.292969 C 15.417969 19.324219 15.441406 19.386719 15.421875 19.445312 L 14.980469 20.800781 C 14.964844 20.855469 14.984375 20.917969 15.03125 20.953125 C 15.078125 20.988281 15.140625 20.988281 15.1875 20.953125 L 16.347656 20.117188 C 16.394531 20.078125 16.457031 20.078125 16.503906 20.117188 L 17.660156 20.953125 C 17.707031 20.988281 17.769531 20.988281 17.820312 20.953125 C 17.867188 20.917969 17.886719 20.855469 17.867188 20.800781 L 17.429688 19.445312 C 17.410156 19.386719 17.429688 19.324219 17.476562 19.292969 L 18.628906 18.453125 C 18.675781 18.417969 18.699219 18.355469 18.679688 18.300781 C 18.660156 18.246094 18.609375 18.207031 18.550781 18.207031 L 17.125 18.207031 C 17.0625 18.207031 17.015625 18.171875 16.996094 18.113281 L 16.554688 16.757812 C 16.535156 16.699219 16.484375 16.660156 16.425781 16.660156 C 16.367188 16.660156 16.316406 16.699219 16.296875 16.757812 L 15.855469 18.113281 C 15.835938 18.171875 15.785156 18.207031 15.726562 18.207031 L 14.296875 18.207031 C 14.238281 18.207031 14.1875 18.246094 14.171875 18.300781 C 14.152344 18.355469 14.171875 18.417969 14.21875 18.453125 L 15.371094 19.292969 " fill-opacity="1" fill-rule="nonzero"/><g clip-path="url(#c819f0993e)"><path fill="#363430" d="M 34.75 27.0625 C 34.75 27.128906 34.726562 27.195312 34.675781 27.242188 C 34.628906 27.285156 34.570312 27.3125 34.5 27.3125 L 31.039062 27.3125 C 30.902344 27.3125 30.789062 27.203125 30.789062 27.0625 L 30.789062 23.601562 C 30.789062 23.464844 30.902344 23.355469 31.039062 23.355469 L 34.5 23.355469 C 34.570312 23.355469 34.628906 23.378906 34.675781 23.425781 C 34.726562 23.472656 34.75 23.535156 34.75 23.601562 Z M 34.75 34.390625 C 34.75 34.453125 34.726562 34.515625 34.675781 34.5625 C 34.628906 34.605469 34.570312 34.636719 34.5 34.636719 L 31.039062 34.636719 C 30.902344 34.636719 30.789062 34.523438 30.789062 34.390625 L 30.789062 30.921875 C 30.789062 30.789062 30.902344 30.679688 31.039062 30.679688 L 34.5 30.679688 C 34.570312 30.679688 34.628906 30.703125 34.675781 30.75 C 34.726562 30.796875 34.75 30.859375 34.75 30.921875 Z M 29.210938 27.0625 C 29.210938 27.128906 29.179688 27.195312 29.136719 27.242188 C 29.089844 27.285156 29.027344 27.3125 28.960938 27.3125 L 25.496094 27.3125 C 25.359375 27.3125 25.25 27.203125 25.25 27.0625 L 25.25 23.601562 C 25.25 23.464844 25.359375 23.355469 25.496094 23.355469 L 28.960938 23.355469 C 29.027344 23.355469 29.089844 23.378906 29.136719 23.425781 C 29.179688 23.472656 29.210938 23.535156 29.210938 23.601562 Z M 29.210938 34.390625 C 29.210938 34.453125 29.179688 34.515625 29.136719 34.5625 C 29.089844 34.605469 29.027344 34.636719 28.960938 34.636719 L 25.496094 34.636719 C 25.359375 34.636719 25.25 34.523438 25.25 34.390625 L 25.25 30.921875 C 25.25 30.789062 25.359375 30.679688 25.496094 30.679688 L 28.960938 30.679688 C 29.027344 30.679688 29.089844 30.703125 29.136719 30.75 C 29.179688 30.796875 29.210938 30.859375 29.210938 30.921875 Z M 36.582031 19 L 23.417969 19 C 23.230469 19 23.074219 19.152344 23.074219 19.347656 L 23.074219 46.3125 L 26.863281 46.3125 L 26.863281 39.1875 L 33.136719 39.1875 L 33.136719 46.3125 L 36.925781 46.3125 L 36.925781 19.347656 C 36.925781 19.253906 36.890625 19.167969 36.824219 19.101562 C 36.757812 19.039062 36.671875 19 36.582031 19 " fill-opacity="1" fill-rule="nonzero"/></g><g clip-path="url(#d0f398d59d)"><path fill="#363430" d="M 45.042969 30.628906 C 45.042969 30.695312 45.011719 30.753906 44.96875 30.800781 C 44.921875 30.851562 44.859375 30.875 44.796875 30.875 L 41.328125 30.875 C 41.191406 30.875 41.082031 30.765625 41.082031 30.628906 L 41.082031 27.164062 C 41.082031 27.027344 41.191406 26.914062 41.328125 26.914062 L 44.796875 26.914062 C 44.859375 26.914062 44.921875 26.945312 44.96875 26.988281 C 45.011719 27.035156 45.042969 27.097656 45.042969 27.164062 Z M 45.042969 36.765625 C 45.042969 36.828125 45.011719 36.890625 44.96875 36.9375 C 44.921875 36.984375 44.859375 37.011719 44.796875 37.011719 L 41.328125 37.011719 C 41.191406 37.011719 41.082031 36.898438 41.082031 36.765625 L 41.082031 33.296875 C 41.082031 33.164062 41.191406 33.050781 41.328125 33.050781 L 44.796875 33.050781 C 44.859375 33.050781 44.921875 33.078125 44.96875 33.125 C 45.011719 33.171875 45.042969 33.234375 45.042969 33.296875 Z M 45.042969 42.898438 C 45.042969 42.964844 45.011719 43.027344 44.96875 43.074219 C 44.921875 43.117188 44.859375 43.148438 44.796875 43.148438 L 41.328125 43.148438 C 41.191406 43.148438 41.082031 43.035156 41.082031 42.898438 L 41.082031 39.4375 C 41.082031 39.296875 41.191406 39.1875 41.328125 39.1875 L 44.796875 39.1875 C 44.859375 39.1875 44.921875 39.210938 44.96875 39.257812 C 45.011719 39.308594 45.042969 39.371094 45.042969 39.4375 Z M 47.46875 23.75 L 38.660156 23.75 C 38.464844 23.75 38.3125 23.90625 38.3125 24.097656 L 38.3125 46.3125 L 47.8125 46.3125 L 47.8125 24.097656 C 47.8125 24.003906 47.777344 23.917969 47.710938 23.851562 C 47.644531 23.789062 47.554688 23.75 47.46875 23.75 " fill-opacity="1" fill-rule="nonzero"/></g><g clip-path="url(#c873553bea)"><path fill="#363430" d="M 18.917969 30.628906 C 18.917969 30.695312 18.890625 30.753906 18.84375 30.800781 C 18.796875 30.851562 18.734375 30.875 18.667969 30.875 L 15.203125 30.875 C 15.070312 30.875 14.957031 30.765625 14.957031 30.628906 L 14.957031 27.164062 C 14.957031 27.027344 15.070312 26.914062 15.203125 26.914062 L 18.667969 26.914062 C 18.734375 26.914062 18.796875 26.945312 18.84375 26.988281 C 18.890625 27.035156 18.917969 27.097656 18.917969 27.164062 Z M 18.917969 36.765625 C 18.917969 36.828125 18.890625 36.890625 18.84375 36.9375 C 18.796875 36.984375 18.734375 37.011719 18.667969 37.011719 L 15.203125 37.011719 C 15.070312 37.011719 14.957031 36.898438 14.957031 36.765625 L 14.957031 33.296875 C 14.957031 33.164062 15.070312 33.050781 15.203125 33.050781 L 18.667969 33.050781 C 18.734375 33.050781 18.796875 33.078125 18.84375 33.125 C 18.890625 33.171875 18.917969 33.234375 18.917969 33.296875 Z M 18.917969 42.898438 C 18.917969 42.964844 18.890625 43.027344 18.84375 43.074219 C 18.796875 43.117188 18.734375 43.148438 18.667969 43.148438 L 15.203125 43.148438 C 15.070312 43.148438 14.957031 43.035156 14.957031 42.898438 L 14.957031 39.4375 C 14.957031 39.296875 15.070312 39.1875 15.203125 39.1875 L 18.667969 39.1875 C 18.734375 39.1875 18.796875 39.210938 18.84375 39.257812 C 18.890625 39.308594 18.917969 39.371094 18.917969 39.4375 Z M 21.339844 23.75 L 12.53125 23.75 C 12.34375 23.75 12.1875 23.90625 12.1875 24.097656 L 12.1875 45.96875 C 12.1875 46.15625 12.34375 46.3125 12.53125 46.3125 L 21.6875 46.3125 L 21.6875 24.097656 C 21.6875 24.003906 21.648438 23.917969 21.585938 23.851562 C 21.519531 23.789062 21.433594 23.75 21.339844 23.75 " fill-opacity="1" fill-rule="nonzero"/></g></svg>